<svg width="21" height="20" viewBox="0 0 21 20" fill="none" xmlns="http://www.w3.org/2000/svg">
<path fill-rule="evenodd" clip-rule="evenodd" d="M10.2759 5.5C7.7906 5.5 5.77588 7.51472 5.77588 10C5.77588 12.4853 7.7906 14.5 10.2759 14.5C12.7612 14.5 14.7759 12.4853 14.7759 10C14.7733 7.51579 12.7601 5.50258 10.2759 5.5ZM10.2759 13C8.61902 13 7.27588 11.6569 7.27588 10C7.27588 8.34315 8.61902 7 10.2759 7C11.9327 7 13.2759 8.34315 13.2759 10C13.2759 11.6569 11.9327 13 10.2759 13ZM14.7759 0.25H5.77588C2.87767 0.2531 0.528979 2.60179 0.525879 5.5V14.5C0.528979 17.3982 2.87767 19.7469 5.77588 19.75H14.7759C17.6741 19.7469 20.0228 17.3982 20.0259 14.5V5.5C20.0228 2.60179 17.6741 0.2531 14.7759 0.25ZM18.5259 14.5C18.5259 16.5711 16.8469 18.25 14.7759 18.25H5.77588C3.70481 18.25 2.02588 16.5711 2.02588 14.5V5.5C2.02588 3.42893 3.70481 1.75 5.77588 1.75H14.7759C16.8469 1.75 18.5259 3.42893 18.5259 5.5V14.5ZM16.2759 5.125C16.2759 5.74632 15.7722 6.25 15.1509 6.25C14.5296 6.25 14.0259 5.74632 14.0259 5.125C14.0259 4.50368 14.5296 4 15.1509 4C15.7722 4 16.2759 4.50368 16.2759 5.125Z" fill="#4F966E"/>
</svg>
