<svg width="21" height="20" viewBox="0 0 21 20" fill="none" xmlns="http://www.w3.org/2000/svg">
<path fill-rule="evenodd" clip-rule="evenodd" d="M10.2759 0.25C4.8911 0.25 0.525879 4.61522 0.525879 10C0.525879 15.3848 4.8911 19.75 10.2759 19.75C15.6607 19.75 20.0259 15.3848 20.0259 10C20.0202 4.61758 15.6583 0.255684 10.2759 0.25ZM11.0259 18.2153V12.25H13.2759C13.6901 12.25 14.0259 11.9142 14.0259 11.5C14.0259 11.0858 13.6901 10.75 13.2759 10.75H11.0259V8.5C11.0259 7.67157 11.6975 7 12.5259 7H14.0259C14.4401 7 14.7759 6.66421 14.7759 6.25C14.7759 5.83579 14.4401 5.5 14.0259 5.5H12.5259C10.869 5.5 9.52588 6.84315 9.52588 8.5V10.75H7.27588C6.86167 10.75 6.52588 11.0858 6.52588 11.5C6.52588 11.9142 6.86167 12.25 7.27588 12.25H9.52588V18.2153C5.13376 17.8144 1.83374 14.0299 2.03442 9.62409C2.2351 5.21827 5.8655 1.74947 10.2759 1.74947C14.6863 1.74947 18.3167 5.21827 18.5173 9.62409C18.718 14.0299 15.418 17.8144 11.0259 18.2153Z" fill="#4F966E"/>
</svg>
