<svg width="21" height="19" viewBox="0 0 21 19" fill="none" xmlns="http://www.w3.org/2000/svg">
<path fill-rule="evenodd" clip-rule="evenodd" d="M20.4687 3.46313C20.3527 3.18285 20.0792 3.00006 19.7759 3H16.9231C16.1118 1.61972 14.6362 0.765791 13.0353 0.75C11.8506 0.734462 10.7098 1.19754 9.87119 2.03438C9.00807 2.88138 8.52305 4.04071 8.52588 5.25V5.82094C4.7515 4.82531 1.66432 1.755 1.6315 1.72219C1.42607 1.51493 1.11906 1.44566 0.844527 1.54461C0.569993 1.64356 0.377784 1.89277 0.351816 2.18344C-0.0522461 6.66375 1.249 9.66187 2.41432 11.3878C2.98251 12.241 3.67374 13.0055 4.46557 13.6566C3.03775 15.3 0.789629 16.1634 0.765254 16.1728C0.550854 16.2531 0.384874 16.4269 0.314561 16.6448C0.244248 16.8627 0.277303 17.1008 0.404316 17.2913C0.474629 17.3962 0.755879 17.7647 1.44307 18.1087C2.29244 18.5344 3.41463 18.75 4.77588 18.75C11.4012 18.75 16.9371 13.6481 17.5024 7.08375L20.3065 4.28062C20.5209 4.06601 20.5849 3.74335 20.4687 3.46313ZM16.2499 6.22031C16.1214 6.34921 16.044 6.52049 16.0324 6.70219C15.6509 12.6169 10.7084 17.25 4.77588 17.25C3.78588 17.25 3.08838 17.1187 2.599 16.9613C3.67807 16.3753 5.18275 15.3675 6.15025 13.9163C6.26503 13.7438 6.30334 13.5315 6.25611 13.3298C6.20887 13.128 6.0803 12.9548 5.90088 12.8512C5.85682 12.8259 1.78432 10.3819 1.77588 3.85125C3.27588 5.07 6.01807 6.96094 9.15119 7.48781C9.36853 7.52446 9.59098 7.46364 9.75946 7.32154C9.92793 7.17943 10.0254 6.9704 10.0259 6.75V5.25C10.0242 4.44176 10.3487 3.66702 10.9259 3.10125C11.4792 2.54686 12.2333 2.23983 13.0165 2.25C14.2034 2.265 15.3124 2.98875 15.7765 4.05094C15.896 4.32382 16.1658 4.50008 16.4637 4.5H17.9637L16.2499 6.22031Z" fill="#4F966E"/>
</svg>
